<svg width="340" height="101" viewBox="0 0 340 101" fill="none" xmlns="http://www.w3.org/2000/svg">
<path d="M0.000366211 42.9346C0.000366211 19.6217 18.8992 0.7229 42.2121 0.7229L116.853 0.7229C120.588 0.7229 124.281 1.51707 127.686 3.05273L136.021 6.81152C140.451 8.80932 145.255 9.84248 150.114 9.84248L190.798 9.84248C194.407 9.84248 197.978 9.10113 201.289 7.66439L212.265 2.90099C215.576 1.46425 219.146 0.7229 222.756 0.7229L297.196 0.7229C320.508 0.7229 339.407 19.6217 339.407 42.9347V74.2902C339.407 88.8438 327.609 100.642 313.056 100.642L26.352 100.642C11.7984 100.642 0.000366211 88.8437 0.000366211 74.2901L0.000366211 42.9346Z" fill="#1A1A1A"/>
</svg>
