<svg width="163" height="74" viewBox="0 0 163 74" fill="none" xmlns="http://www.w3.org/2000/svg">
<rect width="163" height="74" fill="#F5F5F5"/>
<g filter="url(#filter0_d_0_1)">
<rect x="-355.618" y="-403" width="339.407" height="734.324" rx="31.7203" fill="url(#paint0_linear_0_1)" shape-rendering="crispEdges"/>
<g filter="url(#filter1_b_0_1)">
<mask id="path-2-inside-1_0_1" fill="white">
<path d="M1.02558 18.8379C-0.0562586 8.7768 7.82739 0 17.9465 0L145.792 0C155.911 0 163.795 8.7768 162.713 18.8379L158.443 58.5507C157.513 67.1956 150.217 73.7496 141.522 73.7496L22.2167 73.7496C13.5219 73.7496 6.22533 67.1956 5.29577 58.5507L1.02558 18.8379Z"/>
</mask>
<path d="M1.02558 18.8379C-0.0562586 8.7768 7.82739 0 17.9465 0L145.792 0C155.911 0 163.795 8.7768 162.713 18.8379L158.443 58.5507C157.513 67.1956 150.217 73.7496 141.522 73.7496L22.2167 73.7496C13.5219 73.7496 6.22533 67.1956 5.29577 58.5507L1.02558 18.8379Z" fill="url(#paint1_linear_0_1)" fill-opacity="0.6"/>
<path d="M1.02558 18.8379C-0.0562586 8.7768 7.82739 0 17.9465 0L145.792 0C155.911 0 163.795 8.7768 162.713 18.8379L158.443 58.5507C157.513 67.1956 150.217 73.7496 141.522 73.7496L22.2167 73.7496C13.5219 73.7496 6.22533 67.1956 5.29577 58.5507L1.02558 18.8379Z" stroke="url(#paint2_linear_0_1)" stroke-width="1.58601" mask="url(#path-2-inside-1_0_1)"/>
</g>
</g>
<defs>
<filter id="filter0_d_0_1" x="-417.459" y="-403" width="642.111" height="866.362" filterUnits="userSpaceOnUse" color-interpolation-filters="sRGB">
<feFlood flood-opacity="0" result="BackgroundImageFix"/>
<feColorMatrix in="SourceAlpha" type="matrix" values="0 0 0 0 0 0 0 0 0 0 0 0 0 0 0 0 0 0 127 0" result="hardAlpha"/>
<feMorphology radius="41.784" operator="erode" in="SourceAlpha" result="effect1_dropShadow_0_1"/>
<feOffset dy="70.1972"/>
<feGaussianBlur stdDeviation="51.8122"/>
<feComposite in2="hardAlpha" operator="out"/>
<feColorMatrix type="matrix" values="0 0 0 0 0 0 0 0 0 0 0 0 0 0 0 0 0 0 0.22 0"/>
<feBlend mode="normal" in2="BackgroundImageFix" result="effect1_dropShadow_0_1"/>
<feBlend mode="normal" in="SourceGraphic" in2="effect1_dropShadow_0_1" result="shape"/>
</filter>
<filter id="filter1_b_0_1" x="-18.106" y="-19.0322" width="199.95" height="111.814" filterUnits="userSpaceOnUse" color-interpolation-filters="sRGB">
<feFlood flood-opacity="0" result="BackgroundImageFix"/>
<feGaussianBlur in="BackgroundImageFix" stdDeviation="9.51608"/>
<feComposite in2="SourceAlpha" operator="in" result="effect1_backgroundBlur_0_1"/>
<feBlend mode="normal" in="SourceGraphic" in2="effect1_backgroundBlur_0_1" result="shape"/>
</filter>
<linearGradient id="paint0_linear_0_1" x1="-185.915" y1="-403" x2="-185.915" y2="331.324" gradientUnits="userSpaceOnUse">
<stop stop-color="white"/>
<stop offset="1" stop-color="#EBEBEB"/>
</linearGradient>
<linearGradient id="paint1_linear_0_1" x1="82.2657" y1="73.7496" x2="62.4103" y2="-116.883" gradientUnits="userSpaceOnUse">
<stop stop-color="white"/>
<stop offset="1" stop-color="white" stop-opacity="0.53"/>
</linearGradient>
<linearGradient id="paint2_linear_0_1" x1="81.8692" y1="0" x2="81.8692" y2="73.7496" gradientUnits="userSpaceOnUse">
<stop stop-color="white"/>
<stop offset="1" stop-color="white" stop-opacity="0.26"/>
</linearGradient>
</defs>
</svg>
