<svg width="32" height="16" viewBox="0 0 32 16" fill="none" xmlns="http://www.w3.org/2000/svg">
<path d="M1.05552 1.17093C0.787421 1.43376 0.763048 1.84505 0.982402 2.13486L1.05552 2.2179L7.1068 8.14995L1.05552 14.082C0.787421 14.3448 0.763048 14.7561 0.982402 15.0459L1.05552 15.129C1.32362 15.3918 1.74315 15.4157 2.03878 15.2007L2.12348 15.129L8.70849 8.67344C8.97659 8.41061 9.00096 7.99933 8.78161 7.70951L8.70849 7.62647L2.12348 1.17093C1.82857 0.881824 1.35043 0.881824 1.05552 1.17093Z" fill="black" fill-opacity="0.3"/>
<path d="M12.3219 1.17093C12.0538 1.43376 12.0295 1.84505 12.2488 2.13486L12.3219 2.2179L18.3732 8.14995L12.3219 14.082C12.0538 14.3448 12.0295 14.7561 12.2488 15.0459L12.3219 15.129C12.59 15.3918 13.0096 15.4157 13.3052 15.2007L13.3899 15.129L19.9749 8.67344C20.243 8.41061 20.2674 7.99933 20.048 7.70951L19.9749 7.62647L13.3899 1.17093C13.095 0.881824 12.6168 0.881824 12.3219 1.17093Z" fill="black" fill-opacity="0.6"/>
<path d="M23.5893 1.17093C23.3212 1.43376 23.2968 1.84505 23.5162 2.13486L23.5893 2.2179L29.6406 8.14995L23.5893 14.082C23.3212 14.3448 23.2968 14.7561 23.5162 15.0459L23.5893 15.129C23.8574 15.3918 24.2769 15.4157 24.5726 15.2007L24.6573 15.129L31.2423 8.67344C31.5104 8.41061 31.5347 7.99933 31.3154 7.70951L31.2423 7.62647L24.6573 1.17093C24.3624 0.881824 23.8842 0.881824 23.5893 1.17093Z" fill="black"/>
</svg>
