<svg width="11" height="17" viewBox="0 0 11 17" fill="none" xmlns="http://www.w3.org/2000/svg">
<path d="M10.5423 1.58287L10.5425 1.58302L10.5461 1.57834C10.8284 1.2112 10.7968 0.689888 10.4524 0.357538C10.075 -0.00665192 9.46422 -0.00665192 9.08683 0.357538L1.34614 7.82747L1.34599 7.82731L1.3421 7.83166L1.25615 7.92774L1.25599 7.92759L1.25239 7.93227C0.970105 8.29941 1.00174 8.82072 1.34614 9.15307L9.08683 16.623L9.08668 16.6232L9.09114 16.6269L9.1907 16.7098L9.19057 16.71L9.19529 16.7134C9.57323 16.984 10.1091 16.9543 10.4524 16.623L10.4525 16.6232L10.4564 16.6188L10.5423 16.5227L10.5425 16.5229L10.5461 16.5182C10.8284 16.1511 10.7968 15.6297 10.4524 15.2974L3.3982 8.49027L10.4524 1.68314L10.4525 1.6833L10.4564 1.67895L10.5423 1.58287Z" fill="black" stroke="black" stroke-width="0.158601"/>
</svg>
