<svg width="27" height="26" viewBox="0 0 27 26" fill="none" xmlns="http://www.w3.org/2000/svg">
<path d="M9.94616 2.26733L6.05972 6.16451" stroke="black" stroke-width="1.68042" stroke-miterlimit="10" stroke-linecap="round" stroke-linejoin="round"/>
<path d="M16.7948 2.26709L20.6813 6.16426" stroke="black" stroke-width="1.68042" stroke-miterlimit="10" stroke-linecap="round" stroke-linejoin="round"/>
<path d="M2.6337 8.54735C2.6337 6.56119 3.69656 6.40015 5.01709 6.40015L21.7223 6.40015C23.0429 6.40015 24.1057 6.56119 24.1057 8.54735C24.1057 10.8556 23.0429 10.6946 21.7223 10.6946L5.01709 10.6946C3.69656 10.6946 2.6337 10.8556 2.6337 8.54735Z" stroke="black" stroke-width="1.68042"/>
<path d="M4.24454 10.8564L5.75832 16.9116C6.10187 18.9943 6.92854 20.5189 9.99904 20.5189L16.4729 20.5189C19.8118 20.5189 20.3056 19.0588 20.6921 17.0404L22.4958 10.8564" stroke="black" stroke-width="1.68042" stroke-linecap="round"/>
</svg>
