<svg width="23" height="23" viewBox="0 0 23 23" fill="none" xmlns="http://www.w3.org/2000/svg">
<path d="M8.66735 2.745L5.45776 5.96345" stroke="white" stroke-width="1.38776" stroke-miterlimit="10" stroke-linecap="round" stroke-linejoin="round"/>
<path d="M14.3244 2.74524L17.534 5.96369" stroke="white" stroke-width="1.38776" stroke-miterlimit="10" stroke-linecap="round" stroke-linejoin="round"/>
<path d="M2.62903 7.93182C2.62903 6.29156 3.50679 6.15857 4.59734 6.15857L18.3932 6.15857C19.4838 6.15857 20.3615 6.29156 20.3615 7.93182C20.3615 9.83807 19.4838 9.70507 18.3932 9.70507L4.59734 9.70507C3.50679 9.70507 2.62903 9.83807 2.62903 7.93182Z" stroke="white" stroke-width="1.38776"/>
<path d="M3.95941 9.8385L5.20955 14.8391C5.49327 16.5591 6.17598 17.8181 8.71173 17.8181L14.0581 17.8181C16.8155 17.8181 17.2233 16.6123 17.5425 14.9455L19.032 9.8385" stroke="white" stroke-width="1.38776" stroke-linecap="round"/>
</svg>
