<svg width="19" height="12" viewBox="0 0 19 12" fill="none" xmlns="http://www.w3.org/2000/svg">
<path d="M16.2107 2.30683C15.0513 1.38059 13.4981 0.849365 11.9492 0.849365C10.2517 0.849365 8.86621 1.51907 7.71363 2.89673C7.15791 3.56098 6.70009 4.3419 6.29893 5.13839C4.07342 5.21782 2.73756 6.12018 1.99995 6.88267C1.10141 7.81157 0.699158 8.93791 0.699158 9.64209C0.699158 10.1371 0.751292 10.6944 1.13814 11.0748C1.52765 11.4577 2.10395 11.5094 2.61629 11.5094C2.61701 11.5094 2.61769 11.5094 2.61844 11.5094C2.69613 11.5093 2.7728 11.5058 2.84858 11.4989C3.47787 11.4454 4.26897 11.1933 5.10097 10.9283C6.05939 10.6229 7.05044 10.3072 7.75098 10.3072C8.88099 10.3072 9.58467 10.4711 10.3297 10.6447C11.0366 10.8093 11.7675 10.9796 12.8255 10.9796C13.5888 10.9796 15.0548 10.8475 16.2979 9.9629C17.5065 9.10293 18.1453 7.76288 18.1453 6.08771C18.1453 4.64625 17.4582 3.30351 16.2107 2.30683ZM2.64468 10.4869C2.6366 10.487 2.6289 10.4884 2.62062 10.4871C2.61994 10.4871 2.61939 10.4871 2.61871 10.4871C2.61789 10.4871 2.61708 10.4871 2.61629 10.4871C2.10572 10.4871 1.92039 10.4103 1.85479 10.3459C1.76627 10.2588 1.72139 10.0221 1.72139 9.64209C1.72139 9.2396 1.99126 8.36191 2.7347 7.59336C3.27959 7.03014 4.23275 6.37404 5.79456 6.19944C5.68927 6.43128 5.58725 6.66064 5.48748 6.88492C4.63412 8.80331 3.8962 10.4621 2.64468 10.4869ZM12.8255 9.95745C11.885 9.95745 11.2422 9.80769 10.5616 9.64914C9.7931 9.47012 8.99848 9.28499 7.75098 9.28499C6.98972 9.28499 6.0648 9.55196 5.14564 9.84163C5.61083 9.1229 6.00599 8.2345 6.4215 7.30039C6.63071 6.83009 6.84119 6.35686 7.06298 5.89652C7.07429 5.87665 7.08431 5.856 7.09293 5.8346C8.12471 3.70863 9.40956 1.87157 11.9493 1.87157C14.4478 1.87153 17.1231 3.56572 17.1231 6.08771C17.1231 9.77086 13.5431 9.95745 12.8255 9.95745Z" fill="black"/>
<path d="M11.3951 6.64059C11.3 6.54552 11.1685 6.49097 11.0339 6.49097C10.8993 6.49097 10.7675 6.54552 10.6724 6.64059C10.5773 6.73566 10.5228 6.86752 10.5228 7.00208C10.5228 7.13668 10.5773 7.26855 10.6724 7.36361C10.7675 7.45868 10.8993 7.5132 11.0339 7.5132C11.1685 7.5132 11.3 7.45868 11.3951 7.36361C11.4905 7.26855 11.545 7.13668 11.545 7.00208C11.545 6.86752 11.4905 6.736 11.3951 6.64059Z" fill="black"/>
<path d="M13.8039 4.7116C13.7089 4.6165 13.577 4.56201 13.4425 4.56201C13.3079 4.56201 13.1763 4.61653 13.0809 4.7116C12.9859 4.80704 12.9313 4.93854 12.9313 5.07313C12.9313 5.20772 12.9859 5.33959 13.0809 5.43466C13.1763 5.52973 13.3082 5.58425 13.4425 5.58425C13.577 5.58425 13.7086 5.52973 13.8039 5.43466C13.899 5.33922 13.9536 5.20772 13.9536 5.07313C13.9536 4.93884 13.899 4.80701 13.8039 4.7116Z" fill="black"/>
</svg>
