<svg width="15" height="15" viewBox="0 0 15 15" fill="none" xmlns="http://www.w3.org/2000/svg">
<path d="M12.9239 2.50114C12.7261 2.20097 12.5191 1.93108 12.2331 1.70984C11.9443 1.48643 11.6188 1.3126 11.2836 1.16993C10.275 0.740764 8.94323 0.504395 7.53349 0.504395C6.12374 0.504395 4.79194 0.740764 3.78339 1.16996C3.44722 1.31302 3.12078 1.48743 2.83136 1.71179C2.55429 1.9266 2.33463 2.21044 2.14306 2.50117C1.01674 4.21092 0.396423 6.40361 0.396423 8.67534V8.6918C0.3979 9.81715 1.11397 10.8401 2.17833 11.2374C2.80542 11.4714 3.45198 11.6639 4.11058 11.8132C3.83089 12.0613 3.68412 12.3485 3.68412 12.6635C3.68412 13.8168 5.6206 14.4203 7.53349 14.4203C9.44637 14.4203 11.3829 13.8168 11.3829 12.6635C11.3829 12.3485 11.2361 12.0614 10.9565 11.8133C11.615 11.664 12.2615 11.4715 12.8886 11.2374C13.953 10.8401 14.6691 9.81712 14.6705 8.69127V8.67536C14.6705 6.40361 14.0502 4.21092 12.9239 2.50114V2.50114ZM4.11067 1.93902C5.01806 1.55287 6.23365 1.34021 7.53346 1.34021C8.83327 1.34021 10.0489 1.55287 10.9562 1.93902C11.7272 2.26711 12.1875 2.69391 12.1875 3.0807C12.1875 3.6919 11.0112 4.45211 9.02656 4.72236C8.60562 4.042 8.09145 3.67666 7.53343 3.67666C6.97541 3.67666 6.46124 4.042 6.04029 4.72236C4.05567 4.45211 2.87934 3.6919 2.87934 3.0807C2.87939 2.69391 3.33971 2.26711 4.11067 1.93902V1.93902ZM1.23224 8.69125V8.67534C1.23224 6.96439 1.60794 5.30657 2.30309 3.90105C2.49533 4.19094 2.81757 4.49543 3.34366 4.78042C3.96025 5.11441 4.75012 5.36282 5.65116 5.50911C5.64225 5.53149 5.63328 5.55364 5.6245 5.5764C5.20071 6.67569 4.96732 8.12843 4.96732 9.66704C4.96732 10.169 4.99271 10.6646 5.04238 11.1467C4.16165 10.9955 3.29808 10.7632 2.47059 10.4543C1.73089 10.1782 1.23325 9.4695 1.23224 8.69125V8.69125ZM9.808 13.2209C9.20713 13.4553 8.39934 13.5844 7.53349 13.5844C6.66763 13.5844 5.85987 13.4553 5.25897 13.2209C4.6744 12.9928 4.51994 12.7565 4.51994 12.6635C4.51994 12.5221 4.82134 12.2123 5.6301 11.9825C5.83095 11.9255 5.95886 11.7289 5.92972 11.5222C5.84574 10.9268 5.80317 10.3027 5.80317 9.66701C5.80317 7.72248 6.17681 6.23497 6.63219 5.36884C6.63345 5.3665 6.63473 5.36415 6.63593 5.36179C6.92746 4.80998 7.25212 4.51248 7.53349 4.51248C7.81569 4.51248 8.14138 4.81162 8.43358 5.36647C8.43528 5.36967 8.43678 5.37301 8.43857 5.37616C8.89222 6.24333 9.26383 7.72788 9.26383 9.66701C9.26383 10.3027 9.22126 10.9268 9.13728 11.5222C9.10814 11.7289 9.23605 11.9255 9.4369 11.9825C10.2456 12.2123 10.5471 12.5221 10.5471 12.6635C10.547 12.7565 10.3926 12.9928 9.808 13.2209V13.2209ZM13.8347 8.69072C13.8337 9.4695 13.3361 10.1782 12.5964 10.4543C11.7688 10.7632 10.9054 10.9955 10.0246 11.1467C10.0742 10.6647 10.0996 10.169 10.0996 9.66701C10.0996 8.1284 9.86623 6.67567 9.44244 5.57637C9.43366 5.55361 9.42469 5.53146 9.41578 5.50909C10.3168 5.36282 11.1067 5.11441 11.7232 4.78042C12.2493 4.49543 12.5716 4.19094 12.7638 3.90105C13.459 5.30657 13.8347 6.96436 13.8347 8.67534V8.69072H13.8347Z" fill="#FFEC89"/>
</svg>
