<svg width="17" height="15" viewBox="0 0 17 15" fill="none" xmlns="http://www.w3.org/2000/svg">
<path d="M15.7867 3.83081L11.5045 3.83081" stroke="#1A1A1A" stroke-width="1.18951" stroke-miterlimit="10" stroke-linecap="round" stroke-linejoin="round"/>
<path d="M4.36871 3.83099L1.51389 3.83099" stroke="#1A1A1A" stroke-width="1.18951" stroke-miterlimit="10" stroke-linecap="round" stroke-linejoin="round"/>
<path d="M7.22377 6.3292C8.60336 6.3292 9.72174 5.21082 9.72174 3.83122C9.72174 2.45163 8.60336 1.33325 7.22377 1.33325C5.84418 1.33325 4.7258 2.45163 4.7258 3.83122C4.7258 5.21082 5.84418 6.3292 7.22377 6.3292Z" stroke="#1A1A1A" stroke-width="1.18951" stroke-miterlimit="10" stroke-linecap="round" stroke-linejoin="round"/>
<path d="M15.7881 11.6815L12.9333 11.6815" stroke="#1A1A1A" stroke-width="1.18951" stroke-miterlimit="10" stroke-linecap="round" stroke-linejoin="round"/>
<path d="M5.796 11.6816L1.51376 11.6816" stroke="#1A1A1A" stroke-width="1.18951" stroke-miterlimit="10" stroke-linecap="round" stroke-linejoin="round"/>
<path d="M10.0778 14.1793C11.4574 14.1793 12.5757 13.0609 12.5757 11.6813C12.5757 10.3017 11.4574 9.18335 10.0778 9.18335C8.69818 9.18335 7.5798 10.3017 7.5798 11.6813C7.5798 13.0609 8.69818 14.1793 10.0778 14.1793Z" stroke="#1A1A1A" stroke-width="1.18951" stroke-miterlimit="10" stroke-linecap="round" stroke-linejoin="round"/>
</svg>
